<?xml version="1.0" standalone="no"?><!DOCTYPE svg PUBLIC "-//W3C//DTD SVG 1.1//EN" "http://www.w3.org/Graphics/SVG/1.1/DTD/svg11.dtd"><svg t="1644368914350" class="icon" viewBox="0 0 1024 1024" version="1.1" xmlns="http://www.w3.org/2000/svg" p-id="2065" xmlns:xlink="http://www.w3.org/1999/xlink" width="200" height="200"><defs><style type="text/css"></style></defs><path d="M104.727552 457.69728l54.30272 0c14.994432 0 27.15136 12.157952 27.15136 27.15136l0 54.303744c0 14.994432-12.156928 27.15136-27.15136 27.15136l-54.30272 0c-14.994432 0-27.15136-12.156928-27.15136-27.15136L77.576192 484.84864C77.576192 469.854208 89.73312 457.69728 104.727552 457.69728zM349.090816 484.84864l570.181632 0c14.994432 0 27.15136 12.157952 27.15136 27.15136s-12.156928 27.152384-27.15136 27.152384l-570.181632 0c-14.994432 0-27.15136-12.157952-27.15136-27.152384S334.097408 484.84864 349.090816 484.84864zM104.727552 674.909184l54.30272 0c14.994432 0 27.15136 12.156928 27.15136 27.152384l0 54.30272c0 14.994432-12.156928 27.15136-27.15136 27.15136l-54.30272 0c-14.994432 0-27.15136-12.156928-27.15136-27.15136l0-54.30272C77.576192 687.066112 89.73312 674.909184 104.727552 674.909184zM349.090816 702.060544l570.181632 0c14.994432 0 27.15136 12.156928 27.15136 27.15136s-12.156928 27.152384-27.15136 27.152384l-570.181632 0c-14.994432 0-27.15136-12.157952-27.15136-27.152384S334.097408 702.060544 349.090816 702.060544zM104.727552 240.485376l54.30272 0c14.994432 0 27.15136 12.157952 27.15136 27.15136l0 54.30272c0 14.994432-12.156928 27.15136-27.15136 27.15136l-54.30272 0c-14.994432 0-27.15136-12.156928-27.15136-27.15136l0-54.30272C77.576192 252.642304 89.73312 240.485376 104.727552 240.485376zM349.090816 267.636736l570.181632 0c14.994432 0 27.15136 12.157952 27.15136 27.15136 0 14.994432-12.156928 27.15136-27.15136 27.15136l-570.181632 0c-14.994432 0-27.15136-12.156928-27.15136-27.15136C321.939456 279.793664 334.097408 267.636736 349.090816 267.636736z" p-id="2066" fill="#515151"></path></svg>