<?xml version="1.0" standalone="no"?><!DOCTYPE svg PUBLIC "-//W3C//DTD SVG 1.1//EN" "http://www.w3.org/Graphics/SVG/1.1/DTD/svg11.dtd"><svg t="1663118927533" class="icon" viewBox="0 0 1024 1024" version="1.1" xmlns="http://www.w3.org/2000/svg" p-id="3577" xmlns:xlink="http://www.w3.org/1999/xlink" width="25" height="25"><path d="M561.25 81.87l3.69 3.42 69.17 69.17c10.64 15.94 26.19 22.08 42.13 22.92l3.98 0.11h98.02c3.56 0 7.01 0.24 10.35 0.66l-78.41 78.39h-29.96c-41.37 0-79.97-16.26-106.37-50.56l-57.94-57.89-67.84 67.82-11.49 7.64c-9.38 6.19-15.67 10.11-22.42 13.81l-7.03 3.66c-19.58 9.78-39.35 15.55-61.29 15.55h-88.13v88.01c0 40.79-15.81 78.86-49.11 105.21l-59.6 64.5 62.44 62.45c27.3 27.24 46.27 61.97 46.27 101.97v88.05h88.13c41.4 0 80 16.26 106.39 50.57l57.92 57.89 62.31-62.29c27.27-27.25 62.03-46.16 102.02-46.16h88.14v-88.05c0-41.42 16.31-79.99 50.64-106.39l60.68-60.66-41.79-41.76 55.89-55.89 51.62 51.57c27.74 22.18 28.8 65.73-2.06 94.67l-3.69 3.26-69.21 69.14c-15.97 10.62-22.11 26.16-22.92 42.11l-0.13 3.95v97.96c0 38.78-26.64 66.9-64.55 69.01l-4.64 0.13h-98.02c-15.84 0-31.7 9.67-43.11 20.16l-3 2.9-69.19 69.11c-27.61 27.61-65.85 28.74-94.33 3.45l-3.69-3.43-69.16-69.17c-10.64-15.94-26.22-22.08-42.16-22.92l-3.95-0.1h-98.02c-38.81 0-66.98-26.64-69.09-64.56l-0.1-4.58v-97.96c0-15.84-9.7-31.7-20.21-43.11l-2.87-2.97L86.4 563.5c-27.64-27.61-28.8-65.79-3.48-94.27l3.48-3.69 69.16-74.88c15.96-10.62 22.13-26.16 22.97-42.11l0.11-3.95v-98c0-38.79 26.64-66.9 64.55-69.01l4.61-0.13h98.02c14.15 0 28.3-7.7 42.44-16.81l9.43-6.22 69.2-69.14c27.64-27.61 65.87-28.74 94.35-3.45l0.01 0.03z" p-id="3578" fill="#13b2ae"></path><path d="M827.39 246.44l55.66 56.13-346.94 343.9L376.55 486.9l55.88-55.92L536.35 534.9z" fill="#13b2ae" p-id="3579"></path></svg>