<?xml version="1.0" standalone="no"?><!DOCTYPE svg PUBLIC "-//W3C//DTD SVG 1.1//EN" "http://www.w3.org/Graphics/SVG/1.1/DTD/svg11.dtd"><svg t="1646213685309" class="icon" viewBox="0 0 1024 1024" version="1.1" xmlns="http://www.w3.org/2000/svg" p-id="3782" xmlns:xlink="http://www.w3.org/1999/xlink" width="20" height="20"><defs><style type="text/css"></style></defs><path d="M0 0m30.117647 0l963.764706 0q30.117647 0 30.117647 30.117647l0 963.764706q0 30.117647-30.117647 30.117647l-963.764706 0q-30.117647 0-30.117647-30.117647l0-963.764706q0-30.117647 30.117647-30.117647Z" fill="#3FBD79" p-id="3783"></path><path d="M365.929412 432.489412a150.588235 150.588235 0 0 1 25.6 88.997647H219.105882a94.268235 94.268235 0 0 0 19.877647 56.922353 61.590588 61.590588 0 0 0 48.941177 20.178823 67.312941 67.312941 0 0 0 43.369412-13.552941 76.498824 76.498824 0 0 0 21.985882-34.183529h33.731765a100.592941 100.592941 0 0 1-30.117647 51.501176 101.647059 101.647059 0 0 1-69.571765 24.395294 96.978824 96.978824 0 0 1-75.294118-30.117647 120.470588 120.470588 0 0 1-28.611764-84.329412A118.512941 118.512941 0 0 1 210.823529 431.736471a91.858824 91.858824 0 0 1 75.294118-34.18353 92.762353 92.762353 0 0 1 79.811765 34.936471z m-124.988236 11.89647a85.383529 85.383529 0 0 0-20.630588 51.049412h135.529412q-6.324706-70.023529-68.668235-70.023529A60.235294 60.235294 0 0 0 240.941176 444.385882zM416.075294 402.974118h39.604706L512 480.527059l56.018824-77.552941h39.604705l-77.101176 102.4L617.411765 621.025882h-40.207059l-64.90353-90.352941-65.355294 90.352941H406.588235l86.437647-115.501176zM814.531765 432.489412a150.588235 150.588235 0 0 1 25.298823 88.997647H667.858824a94.268235 94.268235 0 0 0 19.877647 56.922353 61.590588 61.590588 0 0 0 48.941176 20.178823 67.312941 67.312941 0 0 0 43.369412-13.552941 76.498824 76.498824 0 0 0 21.985882-34.183529h33.731765a100.592941 100.592941 0 0 1-30.117647 51.501176 101.647059 101.647059 0 0 1-69.571765 24.395294 96.978824 96.978824 0 0 1-75.294118-30.117647A120.470588 120.470588 0 0 1 632.470588 512a118.512941 118.512941 0 0 1 27.407059-80.564706 91.858824 91.858824 0 0 1 75.294118-34.183529 92.762353 92.762353 0 0 1 79.36 35.237647z m-125.289412 11.745882a85.383529 85.383529 0 0 0-20.630588 51.049412h135.529411q-6.324706-70.023529-68.668235-70.02353a60.235294 60.235294 0 0 0-46.230588 19.124706z" fill="#FFFFFF" p-id="3784"></path></svg>