<?xml version="1.0" standalone="no"?><!DOCTYPE svg PUBLIC "-//W3C//DTD SVG 1.1//EN" "http://www.w3.org/Graphics/SVG/1.1/DTD/svg11.dtd"><svg t="1639361417661" class="icon" viewBox="0 0 1024 1024" version="1.1" xmlns="http://www.w3.org/2000/svg" p-id="60501" xmlns:xlink="http://www.w3.org/1999/xlink" width="100" height="100"><defs><style type="text/css"></style></defs><path d="M261.688889 506.311111c-11.377778-11.377778-17.066667-28.444444-17.066667-45.511111 0-17.066667 5.688889-34.133333 17.066667-45.511111l204.8-204.8c11.377778-11.377778 28.444444-17.066667 45.511111-17.066667 5.688889 0 17.066667 0 22.755556 5.688889 5.688889 5.688889 17.066667 5.688889 22.755555 11.377778l204.8 204.8c22.755556 22.755556 22.755556 68.266667 0 91.022222-22.755556 22.755556-68.266667 22.755556-91.022222 0l-96.711111-91.022222v358.4c0 34.133333-28.444444 62.577778-62.577778 62.577778s-62.577778-28.444444-62.577778-62.577778V409.6L352.711111 500.622222c-22.755556 28.444444-68.266667 28.444444-91.022222 5.688889zM1024 0v1024H0V0h1024z m-62.577778 62.577778H62.577778v893.155555h893.155555l5.688889-893.155555z" fill="#13b2ae" p-id="60502"></path></svg>